<svg width="70" height="70" viewBox="0 0 70 70" fill="none" xmlns="http://www.w3.org/2000/svg">
<g id="1 1">
<path id="Vector" opacity="0.15" fill-rule="evenodd" clip-rule="evenodd" d="M20.4166 3.64551C11.1543 3.64551 3.64575 11.1541 3.64575 20.4163V49.583C3.64575 58.8452 11.1543 66.3538 20.4166 66.3538H49.5832C58.8454 66.3538 66.3541 58.8452 66.3541 49.583V20.4163C66.3541 11.1541 58.8454 3.64551 49.5832 3.64551H20.4166Z" fill="#2A7BE4"/>
<path id="Vector_2" d="M20.4167 43.0212L30.6251 31.3545L39.3751 38.6462L49.5834 26.9795" stroke="#2A7BE4" stroke-width="3" stroke-linecap="round" stroke-linejoin="round"/>
<path id="Vector_3" d="M61.2499 17.4997C58.0283 17.4997 55.4166 14.888 55.4166 11.6663C55.4166 8.44468 58.0283 5.83301 61.2499 5.83301C64.4716 5.83301 67.0833 8.44468 67.0833 11.6663C67.0833 14.888 64.4716 17.4997 61.2499 17.4997Z" fill="#2A7BE4"/>
</g>
</svg>
