<svg width="70" height="70" viewBox="0 0 70 70" fill="none" xmlns="http://www.w3.org/2000/svg">
<g id="4 1">
<path id="Vector" opacity="0.15" fill-rule="evenodd" clip-rule="evenodd" d="M5.38469 2.91699C4.0217 2.91699 2.91675 4.02194 2.91675 5.38493C2.91675 6.74795 4.0217 7.8529 5.38469 7.8529H9.49794V57.9212C9.49794 62.7028 14.988 65.4013 18.7738 62.4809L23.1531 59.1025C23.4285 58.8902 23.8078 58.8738 24.1004 59.062L30.1068 62.923C33.0876 64.8393 36.9125 64.8393 39.8934 62.923L45.8997 59.062C46.1925 58.8738 46.5717 58.8902 46.847 59.1025L51.2264 62.4809C55.0122 65.4013 60.5022 62.7028 60.5022 57.9212V7.8529H64.6153C65.9786 7.8529 67.0834 6.74795 67.0834 5.38493C67.0834 4.02194 65.9786 2.91699 64.6153 2.91699H5.38469ZM22.6603 25.1285C22.6603 23.7655 23.7653 22.6606 25.1283 22.6606H35.0001C36.363 22.6606 37.4682 23.7655 37.4682 25.1285C37.4682 26.4915 36.363 27.5965 35.0001 27.5965H25.1283C23.7653 27.5965 22.6603 26.4915 22.6603 25.1285ZM25.1283 35.8231C23.7653 35.8231 22.6603 36.928 22.6603 38.2909C22.6603 39.6539 23.7653 40.759 25.1283 40.759H35.0001C36.363 40.759 37.4682 39.6539 37.4682 38.2909C37.4682 36.928 36.363 35.8231 35.0001 35.8231H25.1283ZM42.404 25.1285C42.404 23.7655 43.5089 22.6606 44.8718 22.6606H46.5171C47.8801 22.6606 48.9852 23.7655 48.9852 25.1285C48.9852 26.4915 47.8801 27.5965 46.5171 27.5965H44.8718C43.5089 27.5965 42.404 26.4915 42.404 25.1285ZM44.8718 35.8231C43.5089 35.8231 42.404 36.928 42.404 38.2909C42.404 39.6539 43.5089 40.759 44.8718 40.759H46.5171C47.8801 40.759 48.9852 39.6539 48.9852 38.2909C48.9852 36.928 47.8801 35.8231 46.5171 35.8231H44.8718Z" fill="#2A7BE4"/>
<path id="Vector_2" fill-rule="evenodd" clip-rule="evenodd" d="M5.38469 2.91699C4.0217 2.91699 2.91675 4.02194 2.91675 5.38493C2.91675 6.74795 4.0217 7.8529 5.38469 7.8529H9.49794H60.5022H64.6153C65.9786 7.8529 67.0834 6.74795 67.0834 5.38493C67.0834 4.02194 65.9786 2.91699 64.6153 2.91699H5.38469Z" fill="#2A7BE4"/>
</g>
</svg>
