<svg width="70" height="70" viewBox="0 0 70 70" fill="none" xmlns="http://www.w3.org/2000/svg">
<g id="4 1">
<path id="Vector" fill-rule="evenodd" clip-rule="evenodd" d="M5.38462 2.91699C4.02164 2.91699 2.91669 4.02194 2.91669 5.38493C2.91669 6.74795 4.02164 7.8529 5.38462 7.8529H9.49788V57.9212C9.49788 62.7028 14.988 65.4013 18.7738 62.4809L23.153 59.1025C23.4284 58.8902 23.8077 58.8738 24.1003 59.062L30.1067 62.923C33.0876 64.8393 36.9125 64.8393 39.8933 62.923L45.8996 59.062C46.1924 58.8738 46.5716 58.8902 46.8469 59.1025L51.2263 62.4809C55.0121 65.4013 60.5022 62.7028 60.5022 57.9212V7.8529H64.6153C65.9785 7.8529 67.0834 6.74795 67.0834 5.38493C67.0834 4.02194 65.9785 2.91699 64.6153 2.91699H5.38462ZM22.6603 25.1285C22.6603 23.7655 23.7652 22.6606 25.1282 22.6606H35C36.363 22.6606 37.4681 23.7655 37.4681 25.1285C37.4681 26.4915 36.363 27.5965 35 27.5965H25.1282C23.7652 27.5965 22.6603 26.4915 22.6603 25.1285ZM25.1282 35.8231C23.7652 35.8231 22.6603 36.928 22.6603 38.2909C22.6603 39.6539 23.7652 40.759 25.1282 40.759H35C36.363 40.759 37.4681 39.6539 37.4681 38.2909C37.4681 36.928 36.363 35.8231 35 35.8231H25.1282ZM42.404 25.1285C42.404 23.7655 43.5088 22.6606 44.8718 22.6606H46.5171C47.88 22.6606 48.9851 23.7655 48.9851 25.1285C48.9851 26.4915 47.88 27.5965 46.5171 27.5965H44.8718C43.5088 27.5965 42.404 26.4915 42.404 25.1285ZM44.8718 35.8231C43.5088 35.8231 42.404 36.928 42.404 38.2909C42.404 39.6539 43.5088 40.759 44.8718 40.759H46.5171C47.88 40.759 48.9851 39.6539 48.9851 38.2909C48.9851 36.928 47.88 35.8231 46.5171 35.8231H44.8718Z" fill="#34CFFF"/>
<path id="Vector_2" fill-rule="evenodd" clip-rule="evenodd" d="M5.38462 2.91699C4.02164 2.91699 2.91669 4.02194 2.91669 5.38493C2.91669 6.74795 4.02164 7.8529 5.38462 7.8529H9.49788H60.5022H64.6153C65.9785 7.8529 67.0834 6.74795 67.0834 5.38493C67.0834 4.02194 65.9785 2.91699 64.6153 2.91699H5.38462Z" fill="#2B92F9"/>
</g>
</svg>
