<svg width="70" height="70" viewBox="0 0 70 70" fill="none" xmlns="http://www.w3.org/2000/svg">
<g id="5 1">
<path id="Vector" fill-rule="evenodd" clip-rule="evenodd" d="M21.5391 17.7334C13.1545 17.7334 6.35742 24.5305 6.35742 32.915V51.1331C6.35742 59.5179 13.1545 66.3149 21.5391 66.3149H51.9027C60.0326 66.3149 66.6703 59.9242 67.0658 51.8923H53.4208C47.9707 51.8923 43.5525 47.4741 43.5525 42.024C43.5525 36.5742 47.9707 32.1561 53.4208 32.1561H67.0658C66.6703 24.124 60.0326 17.7334 51.9027 17.7334H21.5391ZM18.5028 50.3742C17.2451 50.3742 16.2256 51.3935 16.2256 52.6515C16.2256 53.9092 17.2451 54.9285 18.5028 54.9285H36.7208C37.9785 54.9285 38.9982 53.9092 38.9982 52.6515C38.9982 51.3935 37.9785 50.3742 36.7208 50.3742H18.5028Z" fill="#34CFFF"/>
<path id="Vector_2" fill-rule="evenodd" clip-rule="evenodd" d="M53.4214 36.709H67.0851V47.3364H53.4214C50.4869 47.3364 48.1078 44.9573 48.1078 42.0226C48.1078 39.0881 50.4869 36.709 53.4214 36.709ZM53.4214 39.7455C52.1637 39.7455 51.1443 40.7649 51.1443 42.0226C51.1443 43.2805 52.1637 44.2999 53.4214 44.2999H54.0289C55.2866 44.2999 56.306 43.2805 56.306 42.0226C56.306 40.7649 55.2866 39.7455 54.0289 39.7455H53.4214Z" fill="#2B92F9"/>
<path id="Vector_3" d="M59.4557 14.6762C57.2661 8.62974 50.8713 4.72608 44.133 6.11336L18.0182 11.4899C12.5638 12.6129 8.14471 16.2086 5.83334 20.9616C9.4389 16.2317 15.1324 13.1792 21.5389 13.1792H51.9024C54.5778 13.1792 57.1291 13.7116 59.4557 14.6762Z" fill="#2B92F9"/>
</g>
</svg>
