<svg width="70" height="70" viewBox="0 0 70 70" fill="none" xmlns="http://www.w3.org/2000/svg">
<g id="5 1">
<path id="Vector" opacity="0.15" fill-rule="evenodd" clip-rule="evenodd" d="M21.5391 17.7334C13.1545 17.7334 6.35742 24.5305 6.35742 32.915V51.1331C6.35742 59.5179 13.1545 66.3149 21.5391 66.3149H51.9027C60.0326 66.3149 66.6703 59.9242 67.0658 51.8923H53.4208C47.9707 51.8923 43.5525 47.4741 43.5525 42.024C43.5525 36.5742 47.9707 32.1561 53.4208 32.1561H67.0658C66.6703 24.124 60.0326 17.7334 51.9027 17.7334H21.5391ZM18.5028 50.3742C17.2451 50.3742 16.2256 51.3935 16.2256 52.6515C16.2256 53.9092 17.2451 54.9285 18.5028 54.9285H36.7208C37.9785 54.9285 38.9982 53.9092 38.9982 52.6515C38.9982 51.3935 37.9785 50.3742 36.7208 50.3742H18.5028Z" fill="#2A7BE4"/>
<path id="Vector_2" fill-rule="evenodd" clip-rule="evenodd" d="M53.4215 36.709H67.0852V47.3364H53.4215C50.487 47.3364 48.1079 44.9573 48.1079 42.0226C48.1079 39.0881 50.487 36.709 53.4215 36.709ZM53.4215 39.7455C52.1638 39.7455 51.1445 40.7649 51.1445 42.0226C51.1445 43.2805 52.1638 44.2999 53.4215 44.2999H54.029C55.2867 44.2999 56.3061 43.2805 56.3061 42.0226C56.3061 40.7649 55.2867 39.7455 54.029 39.7455H53.4215Z" fill="#2A7BE4"/>
<path id="Vector_3" d="M59.4556 14.6762C57.266 8.62974 50.8713 4.72608 44.1329 6.11336L18.0181 11.4899C12.5637 12.6129 8.14462 16.2086 5.83325 20.9616C9.43881 16.2317 15.1323 13.1792 21.5388 13.1792H51.9023C54.5778 13.1792 57.129 13.7116 59.4556 14.6762Z" fill="#2A7BE4"/>
</g>
</svg>
