<svg width="103" height="112" viewBox="0 0 103 112" fill="none" xmlns="http://www.w3.org/2000/svg">
<path d="M17.5641 23.109C17.5641 20.0817 19.7317 17.4886 22.7111 16.9518L93.8778 4.12895C97.7153 3.43749 101.244 6.38684 101.244 10.2862V102.643C101.244 106.32 98.0879 109.204 94.4258 108.874L23.2592 102.463C20.0344 102.172 17.5641 99.4695 17.5641 96.2318V23.109Z" fill="#2B92F9" stroke="url(#paint0_linear_5_317)" stroke-width="3.12821"/>
<g filter="url(#filter0_b_5_317)">
<path d="M18.6878 60.4656C13.1499 60.4656 8.6489 58.6987 5.20699 55.1442C1.76508 51.5896 0 47.2035 0 41.986C0 36.7685 1.72095 32.4864 5.18493 28.9318C8.6489 25.398 13.1719 23.6104 18.7761 23.6104C24.3802 23.6104 28.8149 25.398 32.2569 28.9318C35.7208 32.4864 37.4418 36.8724 37.4418 42.09C37.4418 47.3075 35.6767 51.5896 32.1465 55.1442C28.6164 58.6987 24.1154 60.4656 18.6657 60.4656H18.6878ZM8.00906 93.018L64.0283 24.5873H78.0386L21.9973 93.018H7.98699H8.00906ZM14.4295 47.5569C15.5989 48.9912 17.0551 49.7188 18.7761 49.7188C20.497 49.7188 21.9532 49.012 23.0784 47.5569C24.2257 46.1226 24.7994 44.2726 24.7994 41.986C24.7994 39.845 24.2037 38.0365 23.0343 36.5606C21.8649 35.1055 20.4088 34.3572 18.6878 34.3572C16.9668 34.3572 15.4445 35.0847 14.3413 36.519C13.2381 37.9533 12.6865 39.8034 12.6865 42.09C12.6865 44.3765 13.2822 46.1226 14.4516 47.5569H14.4295ZM80.7304 88.6111C77.2002 92.1865 72.6993 93.995 67.2496 93.995C61.7999 93.995 57.2989 92.2281 53.8129 88.6735C50.3269 85.1189 48.5839 80.7329 48.5839 75.5362C48.5839 70.3394 50.3048 66.0365 53.7688 62.4819C57.2328 58.9274 61.7558 57.1605 67.3599 57.1605C72.964 57.1605 77.3988 58.9274 80.8407 62.4819C84.3047 66.0365 86.0256 70.4226 86.0256 75.6193C86.0256 80.816 84.2606 85.0358 80.7304 88.6319V88.6111ZM62.9913 81.0239C64.1607 82.4998 65.6169 83.2273 67.3378 83.2273C69.0588 83.2273 70.515 82.5206 71.6402 81.0863C72.7655 79.652 73.3612 77.8019 73.3612 75.5154C73.3612 73.2288 72.7875 71.4827 71.6402 70.0484C70.4929 68.6141 69.0367 67.8866 67.2275 67.8866C65.4183 67.8866 63.8959 68.5933 62.8148 69.986C61.7337 71.3996 61.2042 73.2704 61.2042 75.5985C61.2042 77.7604 61.7999 79.5688 62.9693 81.0239H62.9913Z" fill="#5BF5FF" fill-opacity="0.7"/>
</g>
<defs>
<filter id="filter0_b_5_317" x="-5.47436" y="18.136" width="96.9744" height="81.3335" filterUnits="userSpaceOnUse" color-interpolation-filters="sRGB">
<feFlood flood-opacity="0" result="BackgroundImageFix"/>
<feGaussianBlur in="BackgroundImageFix" stdDeviation="2.73718"/>
<feComposite in2="SourceAlpha" operator="in" result="effect1_backgroundBlur_5_317"/>
<feBlend mode="normal" in="SourceGraphic" in2="effect1_backgroundBlur_5_317" result="shape"/>
</filter>
<linearGradient id="paint0_linear_5_317" x1="15.9542" y1="56.0638" x2="99.4197" y2="56.0638" gradientUnits="userSpaceOnUse">
<stop stop-color="#2A90F9"/>
<stop offset="1" stop-color="#34CEFF"/>
</linearGradient>
</defs>
</svg>
