<svg width="80" height="80" viewBox="0 0 80 80" fill="none" xmlns="http://www.w3.org/2000/svg">
<rect width="80" height="80" fill="#C5CED9"/>
<g id="Landings">
<g id="Illustratons +Text">
<rect width="1920" height="3002" transform="translate(-365 -110)" fill="#EDF2F8"/>
</g>
<g id="Frame 1078">
<g id="Frame 1074">
<g id="Group 1000005647">
<g id="Rectangle 16" filter="url(#filter0_d_6_758)">
<rect x="-131" y="-30" width="341" height="210" rx="20" fill="white"/>
</g>
<g id="Group 1000005646">
<rect id="Rectangle 17" width="80" height="80" rx="24" fill="#2A7BE4"/>
<path id="Vector" d="M31.1964 39.3896C32.6287 39.3885 34.0163 38.8908 35.1228 37.9813C36.2293 37.0719 36.9862 35.8069 37.2647 34.4019C37.5432 32.997 37.3259 31.5389 36.6499 30.2762C35.974 29.0134 34.8811 28.0241 33.5575 27.4767C32.2339 26.9294 30.7615 26.8579 29.3911 27.2743C28.0207 27.6908 26.8371 28.5696 26.0419 29.7608C25.2467 30.9521 24.8891 32.3822 25.0301 33.8076C25.171 35.2329 25.8018 36.5653 26.815 37.5777C27.39 38.1534 28.073 38.6098 28.8249 38.9207C29.5768 39.2317 30.3827 39.391 31.1964 39.3896ZM29.4666 31.4665C29.8668 31.0663 30.3933 30.8173 30.9565 30.7618C31.5198 30.7064 32.0848 30.8479 32.5554 31.1624C33.0259 31.4768 33.3729 31.9447 33.5372 32.4862C33.7014 33.0278 33.6728 33.6096 33.4563 34.1325C33.2397 34.6553 32.8485 35.0869 32.3494 35.3537C31.8502 35.6205 31.2741 35.7059 30.719 35.5955C30.1639 35.4851 29.6643 35.1856 29.3053 34.7482C28.9463 34.3107 28.75 33.7622 28.75 33.1963C28.7491 32.8749 28.812 32.5565 28.935 32.2596C29.058 31.9627 29.2387 31.6931 29.4666 31.4665ZM48.8037 40.636C47.3701 40.636 45.9809 41.1331 44.8727 42.0425C43.7645 42.9519 43.006 44.2175 42.7263 45.6235C42.4466 47.0295 42.6631 48.489 43.3388 49.7533C44.0146 51.0177 45.1078 52.0085 46.4323 52.5571C47.7567 53.1058 49.2304 53.1782 50.6023 52.762C51.9741 52.3459 53.1592 51.467 53.9557 50.275C54.7522 49.083 55.1107 47.6518 54.9702 46.2251C54.8296 44.7984 54.1988 43.4646 53.1851 42.4509C52.6111 41.8737 51.9283 41.4161 51.1762 41.1046C50.4241 40.7931 49.6177 40.6338 48.8037 40.636ZM50.5334 48.5621C50.0741 49.018 49.4528 49.2734 48.8056 49.2721C48.1584 49.2709 47.538 49.0133 47.0804 48.5556C46.6227 48.098 46.3651 47.4777 46.3639 46.8305C46.3627 46.1833 46.618 45.5619 47.0739 45.1026C47.3008 44.874 47.5705 44.6925 47.8677 44.5684C48.1648 44.4444 48.4836 44.3802 48.8056 44.3796C49.1276 44.379 49.4466 44.442 49.7442 44.565C50.0418 44.6879 50.3123 44.8684 50.54 45.0961C50.7677 45.3238 50.9482 45.5943 51.0711 45.8919C51.1941 46.1895 51.257 46.5085 51.2564 46.8305C51.2558 47.1525 51.1916 47.4713 51.0676 47.7684C50.9435 48.0656 50.762 48.3353 50.5334 48.5622L50.5334 48.5621ZM52.4652 27.5491C52.6393 27.7233 52.7774 27.93 52.8716 28.1574C52.9658 28.3849 53.0143 28.6287 53.0143 28.875C53.0143 29.1212 52.9658 29.365 52.8716 29.5925C52.7774 29.82 52.6393 30.0267 52.4652 30.2008L30.1866 52.4795C29.8345 52.8289 29.3583 53.0245 28.8622 53.0235C28.3662 53.0226 27.8908 52.8251 27.54 52.4744C27.1893 52.1236 26.9918 51.6482 26.9909 51.1521C26.9899 50.6561 27.1856 50.1799 27.535 49.8278L49.8136 27.5491C50.1652 27.1975 50.6421 27 51.1394 27C51.6366 27 52.1135 27.1975 52.4652 27.5491Z" fill="white"/>
</g>
</g>
</g>
</g>
</g>
<defs>
<filter id="filter0_d_6_758" x="-156" y="-43" width="391" height="260" filterUnits="userSpaceOnUse" color-interpolation-filters="sRGB">
<feFlood flood-opacity="0" result="BackgroundImageFix"/>
<feColorMatrix in="SourceAlpha" type="matrix" values="0 0 0 0 0 0 0 0 0 0 0 0 0 0 0 0 0 0 127 0" result="hardAlpha"/>
<feOffset dy="12"/>
<feGaussianBlur stdDeviation="12.5"/>
<feComposite in2="hardAlpha" operator="out"/>
<feColorMatrix type="matrix" values="0 0 0 0 0.817517 0 0 0 0 0.856903 0 0 0 0 0.904167 0 0 0 0.25 0"/>
<feBlend mode="normal" in2="BackgroundImageFix" result="effect1_dropShadow_6_758"/>
<feBlend mode="normal" in="SourceGraphic" in2="effect1_dropShadow_6_758" result="shape"/>
</filter>
</defs>
</svg>
