<svg width="108" height="112" viewBox="0 0 108 112" fill="none" xmlns="http://www.w3.org/2000/svg">
<path d="M22.5641 23.109C22.5641 20.0817 24.7317 17.4886 27.7111 16.9518L98.8777 4.12895C102.715 3.43749 106.244 6.38684 106.244 10.2862V102.643C106.244 106.32 103.088 109.204 99.4258 108.874L28.2591 102.463C25.0344 102.172 22.5641 99.4695 22.5641 96.2318V23.109Z" fill="#2B92F9" stroke="url(#paint0_linear_5_316)" stroke-width="3.12821"/>
<g filter="url(#filter0_b_5_316)">
<path d="M96.1899 52.3339C96.005 36.2685 82.3446 23.6104 66.3629 23.6104H33.6806C14.1657 23.6104 0.751827 35.649 0.0328572 51.2808C-0.747738 67.9863 12.4813 81.7595 28.9354 81.7595H50.6688L71.293 96.7305C72.772 97.8042 74.7851 96.5239 74.477 94.7274L72.1968 81.3052C85.9394 78.9305 96.3748 66.8505 96.1899 52.3132V52.3339ZM26.5115 58.7972C22.7317 58.7972 19.671 55.7204 19.671 51.9209C19.671 48.1214 22.7317 45.0446 26.5115 45.0446C30.2912 45.0446 33.352 48.1214 33.352 51.9209C33.352 55.7204 30.2912 58.7972 26.5115 58.7972ZM48.0806 58.7972C44.3008 58.7972 41.2401 55.7204 41.2401 51.9209C41.2401 48.1214 44.3008 45.0446 48.0806 45.0446C51.8603 45.0446 54.921 48.1214 54.921 51.9209C54.921 55.7204 51.8603 58.7972 48.0806 58.7972ZM69.6496 58.7972C65.8699 58.7972 62.8092 55.7204 62.8092 51.9209C62.8092 48.1214 65.8699 45.0446 69.6496 45.0446C73.4294 45.0446 76.4901 48.1214 76.4901 51.9209C76.4901 55.7204 73.4294 58.7972 69.6496 58.7972Z" fill="#5BF5FF" fill-opacity="0.7"/>
</g>
<defs>
<filter id="filter0_b_5_316" x="-5.47436" y="18.136" width="107.141" height="84.4614" filterUnits="userSpaceOnUse" color-interpolation-filters="sRGB">
<feFlood flood-opacity="0" result="BackgroundImageFix"/>
<feGaussianBlur in="BackgroundImageFix" stdDeviation="2.73718"/>
<feComposite in2="SourceAlpha" operator="in" result="effect1_backgroundBlur_5_316"/>
<feBlend mode="normal" in="SourceGraphic" in2="effect1_backgroundBlur_5_316" result="shape"/>
</filter>
<linearGradient id="paint0_linear_5_316" x1="20.9542" y1="56.0638" x2="104.42" y2="56.0638" gradientUnits="userSpaceOnUse">
<stop stop-color="#2A90F9"/>
<stop offset="1" stop-color="#34CEFF"/>
</linearGradient>
</defs>
</svg>
