<svg width="80" height="80" viewBox="0 0 80 80" fill="none" xmlns="http://www.w3.org/2000/svg">
<g id="Group 1000005646">
<rect id="Rectangle 17" width="80" height="80" rx="24" fill="#2A7BE4"/>
<path id="&#226;&#134;&#179; Icon Color" d="M27.7273 49.6257V45.2196C27.7273 43.7577 28.9124 42.5726 30.3743 42.5726C31.8363 42.5726 33.0214 43.7577 33.0214 45.2196V49.6257C33.0214 51.0876 31.8363 52.2727 30.3743 52.2727C28.9124 52.2727 27.7273 51.0876 27.7273 49.6257ZM27.7273 47.4057V40.5413C26.0988 41.4647 25 43.2139 25 45.2196V49.6257C25 52.5938 27.4062 55 30.3743 55C33.3425 55 35.7487 52.5938 35.7487 49.6257V45.2196C35.7487 42.2515 33.3425 39.8453 30.3743 39.8453C29.4119 39.8453 28.5086 40.0983 27.7273 40.5413V40C27.7273 33.222 33.222 27.7273 40 27.7273C46.778 27.7273 52.2727 33.222 52.2727 40V40.5413C51.4914 40.0983 50.5881 39.8453 49.6257 39.8453C46.6575 39.8453 44.2513 42.2515 44.2513 45.2196V49.6257C44.2513 52.5938 46.6575 55 49.6257 55C52.5938 55 55 52.5938 55 49.6257V45.2196C55 43.2139 53.9012 41.4647 52.2727 40.5413V47.2233C52.2727 47.9764 52.8832 48.5869 53.6364 48.5869C54.3895 48.5869 55 47.9764 55 47.2233V40C55 31.7157 48.2843 25 40 25C31.7157 25 25 31.7157 25 40V47.4057C25 48.1588 25.6105 48.7693 26.3636 48.7693C27.1168 48.7693 27.7273 48.1588 27.7273 47.4057ZM52.2727 45.2196V49.6257C52.2727 51.0876 51.0876 52.2727 49.6257 52.2727C48.1637 52.2727 46.9786 51.0876 46.9786 49.6257V45.2196C46.9786 43.7577 48.1637 42.5726 49.6257 42.5726C51.0876 42.5726 52.2727 43.7577 52.2727 45.2196Z" fill="white"/>
</g>
</svg>
