<svg width="80" height="80" viewBox="0 0 80 80" fill="none" xmlns="http://www.w3.org/2000/svg">
<g id="Group 1000005646">
<rect id="Rectangle 17" width="80" height="80" rx="24" fill="#2A7BE4"/>
<g id="&#226;&#134;&#179; Icon Color">
<path fill-rule="evenodd" clip-rule="evenodd" d="M39.6622 23.0874C39.9884 22.9709 40.3449 22.9709 40.6712 23.0874L52.3378 27.2541C52.9348 27.4673 53.3333 28.0327 53.3333 28.6667V41.1667C53.3333 45.9178 50.7197 49.6281 47.9284 52.0844C46.524 53.3203 45.0334 54.2781 43.7093 54.9331C42.4469 55.5575 41.1488 56 40.1667 56C39.1845 56 37.8864 55.5575 36.624 54.9331C35.2999 54.2781 33.8093 53.3203 32.4049 52.0844C29.6136 49.6281 27 45.9178 27 41.1667V28.6667C27 28.0327 27.3985 27.4673 27.9955 27.2541L39.6622 23.0874ZM30 29.7237V41.1667C30 44.7488 31.9697 47.7053 34.3868 49.8323C35.5865 50.888 36.8563 51.701 37.9541 52.244C39.1136 52.8175 39.8988 53 40.1667 53C40.4345 53 41.2198 52.8175 42.3792 52.244C43.477 51.701 44.7468 50.888 45.9466 49.8323C48.3636 47.7053 50.3333 44.7488 50.3333 41.1667V29.7237L40.1667 26.0928L30 29.7237Z" fill="white"/>
<path fill-rule="evenodd" clip-rule="evenodd" d="M47.0607 35.106C47.6464 35.6918 47.6464 36.6415 47.0607 37.2273L39.5607 44.7273C38.9749 45.3131 38.0251 45.3131 37.4393 44.7273L33.2727 40.5607C32.6869 39.9749 32.6869 39.0251 33.2727 38.4393C33.8585 37.8536 34.8082 37.8536 35.394 38.4393L38.5 41.5453L44.9393 35.106C45.5251 34.5202 46.4749 34.5202 47.0607 35.106Z" fill="white"/>
</g>
</g>
</svg>
