<svg width="80" height="80" viewBox="0 0 80 80" fill="none" xmlns="http://www.w3.org/2000/svg">
<g id="Group 1000005646">
<rect id="Rectangle 17" width="80" height="80" rx="24" fill="#2A7BE4"/>
<g id="&#226;&#134;&#179; Icon Color">
<path fill-rule="evenodd" clip-rule="evenodd" d="M43.0119 37.6711C42.4607 38.8126 41.7582 39.9684 40.8634 40.8633C39.9685 41.7582 38.8127 42.4607 37.6712 43.0119C38.8127 43.5631 39.9685 44.2656 40.8634 45.1604C41.7579 46.0549 42.4604 47.209 43.0119 48.3487C43.5634 47.209 44.266 46.0549 45.1605 45.1604C46.055 44.2659 47.2091 43.5633 48.3488 43.0119C47.2091 42.4604 46.055 41.7578 45.1605 40.8633C44.2656 39.9684 43.5631 38.8126 43.0119 37.6711ZM41.5929 33.9773C40.9416 35.8978 40.0637 37.8448 38.9543 38.9542C37.8449 40.0636 35.8978 40.9415 33.9773 41.5929C33.7454 41.6715 33.514 41.7468 33.2844 41.8189C32.7763 41.9783 32.2775 42.1216 31.8046 42.2489C31.6793 42.2826 31.5557 42.3152 31.4343 42.3467C30.8624 42.495 30.8624 43.5288 31.4343 43.677C31.5557 43.7085 31.6793 43.7411 31.8046 43.7748C32.2775 43.9021 32.7763 44.0454 33.2844 44.2048C33.514 44.2769 33.7454 44.3522 33.9773 44.4309C35.8978 45.0822 37.8449 45.9601 38.9543 47.0695C40.0635 48.1786 40.9413 50.1202 41.5925 52.0344C41.6708 52.2645 41.7458 52.4942 41.8176 52.722C41.9774 53.2295 42.1211 53.7276 42.2486 54.1999C42.2826 54.3257 42.3154 54.4496 42.3471 54.5714C42.4957 55.1429 43.5281 55.1429 43.6768 54.5714C43.7085 54.4496 43.7413 54.3257 43.7753 54.1999C43.9028 53.7276 44.0465 53.2295 44.2063 52.722C44.278 52.4942 44.3531 52.2645 44.4313 52.0344C45.0826 50.1202 45.9604 48.1786 47.0696 47.0695C48.1787 45.9603 50.1203 45.0825 52.0345 44.4313C52.2646 44.353 52.4942 44.278 52.722 44.2062C53.2295 44.0464 53.7277 43.9027 54.2 43.7752C54.3258 43.7412 54.4497 43.7084 54.5715 43.6767C55.1429 43.5281 55.1429 42.4957 54.5715 42.347C54.4497 42.3153 54.3258 42.2825 54.2 42.2485C53.7277 42.121 53.2295 41.9773 52.722 41.8175C52.4942 41.7458 52.2646 41.6707 52.0345 41.5925C50.1203 40.9412 48.1787 40.0634 47.0696 38.9542C45.9602 37.8448 45.0823 35.8978 44.4309 33.9773C44.3523 33.7454 44.277 33.514 44.2049 33.2844C44.0455 32.7763 43.9022 32.2776 43.7749 31.8047C43.7412 31.6793 43.7086 31.5558 43.6771 31.4344C43.5288 30.8625 42.4951 30.8625 42.3468 31.4344C42.3153 31.5558 42.2827 31.6793 42.249 31.8047C42.1217 32.2776 41.9784 32.7763 41.8189 33.2844C41.7469 33.514 41.6716 33.7454 41.5929 33.9773Z" fill="white"/>
<path d="M31.644 25.482C31.4297 24.8393 30.5206 24.8393 30.3064 25.482L29.5272 27.8197C29.2585 28.6259 28.6259 29.2585 27.8197 29.5272L25.482 30.3064C24.8393 30.5206 24.8393 31.4297 25.482 31.644L27.8133 32.4211C28.6231 32.691 29.2575 33.3279 29.5242 34.1387L30.3055 36.5139C30.5181 37.1602 31.4323 37.1602 31.6448 36.5139L32.4241 34.1451C32.6919 33.3307 33.3307 32.6919 34.1451 32.4241L36.5139 31.6448C37.1602 31.4323 37.1602 30.5181 36.5139 30.3055L34.1387 29.5242C33.3279 29.2575 32.691 28.6231 32.4211 27.8133L31.644 25.482Z" fill="white"/>
</g>
</g>
</svg>
