<svg width="22" height="22" viewBox="0 0 22 22" fill="none" xmlns="http://www.w3.org/2000/svg">
<g id="flat-color-icons:android-os">
<path id="Vector" d="M5.49984 13.2917C5.49984 13.5348 5.40326 13.7679 5.23135 13.9398C5.05944 14.1118 4.82629 14.2083 4.58317 14.2083C4.34006 14.2083 4.1069 14.1118 3.93499 13.9398C3.76308 13.7679 3.6665 13.5348 3.6665 13.2917V9.16667C3.6665 8.92355 3.76308 8.69039 3.93499 8.51849C4.1069 8.34658 4.34006 8.25 4.58317 8.25C4.82629 8.25 5.05944 8.34658 5.23135 8.51849C5.40326 8.69039 5.49984 8.92355 5.49984 9.16667V13.2917Z" fill="#86F95E"/>
<path id="Vector_2" d="M18.3333 13.2917C18.3333 13.5348 18.2368 13.7679 18.0648 13.9398C17.8929 14.1118 17.6598 14.2083 17.4167 14.2083C17.1736 14.2083 16.9404 14.1118 16.7685 13.9398C16.5966 13.7679 16.5 13.5348 16.5 13.2917V9.16667C16.5 8.92355 16.5966 8.69039 16.7685 8.51849C16.9404 8.34658 17.1736 8.25 17.4167 8.25C17.6598 8.25 17.8929 8.34658 18.0648 8.51849C18.2368 8.69039 18.3333 8.92355 18.3333 9.16667V13.2917Z" fill="#86F95E"/>
<path id="Vector_3" d="M10.0833 18.3337C10.0833 18.5768 9.98676 18.8099 9.81485 18.9818C9.64294 19.1537 9.40978 19.2503 9.16667 19.2503C8.92355 19.2503 8.69039 19.1537 8.51849 18.9818C8.34658 18.8099 8.25 18.5768 8.25 18.3337V14.2087C8.25 13.9655 8.34658 13.7324 8.51849 13.5605C8.69039 13.3886 8.92355 13.292 9.16667 13.292C9.40978 13.292 9.64294 13.3886 9.81485 13.5605C9.98676 13.7324 10.0833 13.9655 10.0833 14.2087V18.3337Z" fill="#86F95E"/>
<path id="Vector_4" d="M13.7498 18.3337C13.7498 18.5768 13.6533 18.8099 13.4814 18.9818C13.3094 19.1537 13.0763 19.2503 12.8332 19.2503C12.5901 19.2503 12.3569 19.1537 12.185 18.9818C12.0131 18.8099 11.9165 18.5768 11.9165 18.3337V14.2087C11.9165 13.9655 12.0131 13.7324 12.185 13.5605C12.3569 13.3886 12.5901 13.292 12.8332 13.292C13.0763 13.292 13.3094 13.3886 13.4814 13.5605C13.6533 13.7324 13.7498 13.9655 13.7498 14.2087V18.3337Z" fill="#86F95E"/>
<path id="Vector_5" d="M6.4165 8.25V15.1245C6.4165 15.3677 6.51308 15.6008 6.68499 15.7727C6.8569 15.9446 7.09006 16.0412 7.33317 16.0412H14.6665C14.9096 16.0412 15.1428 15.9446 15.3147 15.7727C15.4866 15.6008 15.5832 15.3677 15.5832 15.1245V8.25H6.4165Z" fill="#86F95E"/>
<path id="Vector_6" d="M10.9998 3.66699C8.24984 3.66699 6.57463 5.33762 6.4165 7.33366H15.5832C15.4246 5.33762 13.7498 3.66699 10.9998 3.66699ZM9.1665 6.23274C9.04495 6.23274 8.92837 6.18445 8.84241 6.0985C8.75646 6.01255 8.70817 5.89597 8.70817 5.77441C8.70817 5.65285 8.75646 5.53627 8.84241 5.45032C8.92837 5.36436 9.04495 5.31608 9.1665 5.31608C9.28806 5.31608 9.40464 5.36436 9.4906 5.45032C9.57655 5.53627 9.62484 5.65285 9.62484 5.77441C9.62484 5.89597 9.57655 6.01255 9.4906 6.0985C9.40464 6.18445 9.28806 6.23274 9.1665 6.23274ZM12.8332 6.23274C12.7116 6.23274 12.595 6.18445 12.5091 6.0985C12.4231 6.01255 12.3748 5.89597 12.3748 5.77441C12.3748 5.65285 12.4231 5.53627 12.5091 5.45032C12.595 5.36436 12.7116 5.31608 12.8332 5.31608C12.9547 5.31608 13.0713 5.36436 13.1573 5.45032C13.2432 5.53627 13.2915 5.65285 13.2915 5.77441C13.2915 5.89597 13.2432 6.01255 13.1573 6.0985C13.0713 6.18445 12.9547 6.23274 12.8332 6.23274Z" fill="#86F95E"/>
<path id="Vector (Stroke)" fill-rule="evenodd" clip-rule="evenodd" d="M14.3047 2.37606C14.7643 2.68242 14.8884 3.30329 14.5821 3.76282L13.8185 4.90819C13.5121 5.36772 12.8913 5.49189 12.4317 5.18554C11.9722 4.87918 11.848 4.25832 12.1544 3.79879L12.918 2.65341C13.2243 2.19388 13.8452 2.06971 14.3047 2.37606Z" fill="#86F95E"/>
<path id="Vector (Stroke)_2" fill-rule="evenodd" clip-rule="evenodd" d="M7.71092 2.36596C8.17604 2.06816 8.79451 2.20381 9.0923 2.66893L9.70326 3.62318C10.0011 4.0883 9.86541 4.70676 9.40029 5.00456C8.93517 5.30235 8.3167 5.16671 8.01891 4.70158L7.40795 3.74733C7.11015 3.28221 7.2458 2.66375 7.71092 2.36596Z" fill="#86F95E"/>
</g>
</svg>
