<svg width="22" height="22" viewBox="0 0 22 22" fill="none" xmlns="http://www.w3.org/2000/svg">
<g id="ant-design:apple-filled">
<path id="Vector" d="M16.0574 11.5092C16.0488 10.0439 16.7127 8.93965 18.0533 8.12539C17.3035 7.05117 16.1691 6.46035 14.6738 6.34648C13.258 6.23477 11.709 7.17148 11.1418 7.17148C10.5424 7.17148 9.17168 6.38516 8.09316 6.38516C5.86738 6.41953 3.50195 8.15976 3.50195 11.7004C3.50195 12.7467 3.69316 13.8273 4.07559 14.9402C4.58691 16.4055 6.43027 19.9955 8.35312 19.9375C9.35859 19.9139 10.0697 19.2242 11.3781 19.2242C12.6479 19.2242 13.3053 19.9375 14.4268 19.9375C16.3668 19.9096 18.034 16.6461 18.5195 15.1766C15.9178 13.9498 16.0574 11.5844 16.0574 11.5092ZM13.7994 4.95645C14.8887 3.66309 14.7898 2.48574 14.7576 2.0625C13.7951 2.11836 12.6822 2.71777 12.0484 3.45469C11.3502 4.24531 10.9398 5.22285 11.0279 6.325C12.0678 6.40449 13.0174 5.86953 13.7994 4.95645Z" fill="white"/>
</g>
</svg>
