<svg width="24" height="24" viewBox="0 0 24 24" fill="none" xmlns="http://www.w3.org/2000/svg">
<g id="link_circle_outline_28">
<path id="&#226;&#134;&#179; Icon Color" d="M12.0001 1.71436C17.6807 1.71436 22.2858 6.31943 22.2858 12.0001C22.2858 17.6807 17.6807 22.2858 12.0001 22.2858C6.31943 22.2858 1.71436 17.6807 1.71436 12.0001C1.71436 6.31943 6.31943 1.71436 12.0001 1.71436ZM12.0001 3.42864C7.2662 3.42864 3.42864 7.2662 3.42864 12.0001C3.42864 16.7339 7.2662 20.5715 12.0001 20.5715C16.7339 20.5715 20.5715 16.7339 20.5715 12.0001C20.5715 7.2662 16.7339 3.42864 12.0001 3.42864ZM15.4286 7.71436C15.902 7.71436 16.2858 8.09811 16.2858 8.5715V13.7144C16.2858 14.1877 15.902 14.5715 15.4286 14.5715C14.9553 14.5715 14.5715 14.1877 14.5715 13.7144V10.6406L9.17759 16.0347C8.8686 16.3437 8.38241 16.3675 8.04616 16.106L7.96541 16.0347C7.63067 15.7 7.63067 15.1573 7.96541 14.8225L13.3578 9.42864H10.2858C9.84621 9.42864 9.48392 9.09775 9.43441 8.67146L9.42864 8.5715C9.42864 8.09811 9.8124 7.71436 10.2858 7.71436H15.4286Z" fill="white"/>
</g>
</svg>
