<svg width="25" height="24" viewBox="0 0 25 24" fill="none" xmlns="http://www.w3.org/2000/svg">
<g id="link_circle_outline_28">
<path id="&#226;&#134;&#179; Icon Color" d="M12.5001 1.71387C18.1807 1.71387 22.7858 6.31894 22.7858 11.9996C22.7858 17.6802 18.1807 22.2853 12.5001 22.2853C6.81943 22.2853 2.21436 17.6802 2.21436 11.9996C2.21436 6.31894 6.81943 1.71387 12.5001 1.71387ZM12.5001 3.42815C7.7662 3.42815 3.92864 7.26571 3.92864 11.9996C3.92864 16.7335 7.7662 20.571 12.5001 20.571C17.2339 20.571 21.0715 16.7335 21.0715 11.9996C21.0715 7.26571 17.2339 3.42815 12.5001 3.42815ZM15.9286 7.71387C16.402 7.71387 16.7858 8.09762 16.7858 8.57101V13.7139C16.7858 14.1873 16.402 14.571 15.9286 14.571C15.4553 14.571 15.0715 14.1873 15.0715 13.7139V10.6402L9.67759 16.0342C9.3686 16.3432 8.88241 16.367 8.54616 16.1055L8.46541 16.0342C8.13067 15.6995 8.13067 15.1568 8.46541 14.8221L13.8578 9.42815H10.7858C10.3462 9.42815 9.98392 9.09726 9.93441 8.67097L9.92864 8.57101C9.92864 8.09762 10.3124 7.71387 10.7858 7.71387H15.9286Z" fill="#2A7BE4"/>
</g>
</svg>
