<svg width="148" height="42" viewBox="0 0 148 42" fill="none" xmlns="http://www.w3.org/2000/svg">
<g id="Frame">
<path id="Vector" d="M28.56 0H13.44C6.01729 0 0 6.01729 0 13.44V28.56C0 35.9827 6.01729 42 13.44 42H28.56C35.9827 42 42 35.9827 42 28.56V13.44C42 6.01729 35.9827 0 28.56 0Z" fill="#2A7BE4"/>
<path id="Vector_2" d="M25.2393 21.3115C25.4588 22.3102 26.3345 23.0129 27.3342 22.9946H30.7466C31.1626 22.9946 31.5 22.6501 31.5 22.2243V19.5661C31.499 19.1412 31.1626 18.7958 30.7466 18.7949H27.2538C26.1167 18.7986 25.1982 19.7425 25.2 20.9058C25.2 21.0419 25.2134 21.178 25.2393 21.3115Z" fill="white"/>
<path id="Vector_3" fill-rule="evenodd" clip-rule="evenodd" d="M31.4962 17.1937H27.0499C24.9807 17.1973 23.3045 18.8317 23.3007 20.8492C23.2978 22.8712 24.9761 24.5129 27.0499 24.5156H31.5V24.8368C31.5 28.3641 29.3618 30.4498 25.7431 30.4498H16.2578C12.6383 30.4498 10.5 28.3641 10.5 24.8368V17.1545C10.5 13.6274 12.6383 11.5498 16.2578 11.5498H25.7394C29.358 11.5498 31.4962 13.6274 31.4962 17.1545V17.1937ZM15.4766 17.1855H21.4097C21.853 17.1837 22.2115 16.8315 22.2096 16.3984C22.2078 15.9661 21.8455 15.6167 21.4023 15.6184H15.4766C15.036 15.6203 14.6785 15.9688 14.6766 16.3992C14.6748 16.8315 15.0332 17.1837 15.4766 17.1855Z" fill="white"/>
<path id="Vector_4" d="M28.35 20.8952C28.35 21.4752 27.8799 21.9452 27.3 21.9452C26.7201 21.9452 26.25 21.4752 26.25 20.8952C26.25 20.3153 26.7201 19.8452 27.3 19.8452C27.8799 19.8452 28.35 20.3153 28.35 20.8952Z" fill="#2A7BE4"/>
<path id="Vector_5" d="M57.9218 16.9612C59.091 16.9612 60.0134 17.2435 60.6887 17.8079C61.3641 18.3724 61.7018 19.1435 61.7018 20.1213V20.2876C61.7018 21.2755 61.3641 22.0516 60.6887 22.6161C60.0134 23.1806 59.091 23.4628 57.9218 23.4628H53.8998V26.8799H51.6318V16.9612H57.9218ZM57.8613 21.4519C58.3552 21.4519 58.7332 21.3561 58.9953 21.1646C59.2574 20.963 59.3884 20.6707 59.3884 20.2876V20.1213C59.3884 19.7483 59.2574 19.4661 58.9953 19.2746C58.7332 19.073 58.3552 18.9722 57.8613 18.9722H53.8998V21.4519H57.8613ZM72.486 26.5322V26.8799H70.218L69.3108 24.8236H64.3515L63.4443 26.8799H61.1763V26.5322L65.5762 16.9612H68.0861L72.486 26.5322ZM68.449 22.858L66.8311 19.1687L65.2133 22.858H68.449ZM82.2938 16.9612V17.309L77.9392 23.0243V26.8799H75.6561V23.0243L71.2864 17.309V16.9612H73.751L76.7901 20.968L79.8292 16.9612H82.2938ZM94.5765 17.309L90.3278 21.7694L94.3648 26.5322V26.8799H91.7491L88.3622 22.8883H86.578V26.8799H84.31V16.9612H86.578V20.8471H88.2866L91.87 16.9612H94.5765V17.309ZM106.744 26.5322V26.8799H104.476L103.569 24.8236H98.6093L97.7021 26.8799H95.4341V26.5322L99.8341 16.9612H102.344L106.744 26.5322ZM102.707 22.858L101.089 19.1687L99.4712 22.858H102.707ZM113.025 27.0614C111.826 27.0614 110.773 26.8547 109.865 26.4415C108.958 26.0282 108.258 25.4435 107.764 24.6875C107.28 23.9215 107.038 23.0294 107.038 22.0113V21.845C107.038 20.8269 107.28 19.9399 107.764 19.1839C108.258 18.4178 108.958 17.8281 109.865 17.4148C110.773 16.9915 111.826 16.7798 113.025 16.7798C114.134 16.7798 115.127 16.9612 116.004 17.3241C116.891 17.687 117.582 18.191 118.076 18.8361C118.579 19.4812 118.831 20.207 118.831 21.0134V21.1343H116.518V21.0134C116.518 20.6001 116.367 20.2322 116.065 19.9096C115.772 19.5871 115.359 19.3351 114.825 19.1536C114.301 18.9722 113.696 18.8815 113.01 18.8815C111.811 18.8815 110.899 19.1335 110.274 19.6375C109.659 20.1415 109.351 20.8672 109.351 21.8147V22.0415C109.351 22.9991 109.659 23.7249 110.274 24.2188C110.888 24.7127 111.806 24.9597 113.025 24.9597C114.084 24.9597 114.931 24.7682 115.566 24.3851C116.201 23.992 116.518 23.4779 116.518 22.8429V22.7371H118.831V22.8429C118.831 23.6493 118.579 24.3751 118.076 25.0202C117.582 25.6552 116.891 26.1542 116.004 26.5171C115.127 26.8799 114.134 27.0614 113.025 27.0614ZM126.241 27.0614C125.042 27.0614 123.988 26.8547 123.081 26.4415C122.174 26.0282 121.473 25.4435 120.979 24.6875C120.496 23.9215 120.254 23.0294 120.254 22.0113V21.845C120.254 20.8269 120.496 19.9399 120.979 19.1839C121.473 18.4178 122.174 17.8281 123.081 17.4148C123.988 16.9915 125.042 16.7798 126.241 16.7798C127.35 16.7798 128.343 16.9612 129.22 17.3241C130.107 17.687 130.797 18.191 131.291 18.8361C131.795 19.4812 132.047 20.207 132.047 21.0134V21.1343H129.734V21.0134C129.734 20.6001 129.583 20.2322 129.28 19.9096C128.988 19.5871 128.575 19.3351 128.04 19.1536C127.516 18.9722 126.911 18.8815 126.226 18.8815C125.027 18.8815 124.114 19.1335 123.489 19.6375C122.874 20.1415 122.567 20.8672 122.567 21.8147V22.0415C122.567 22.9991 122.874 23.7249 123.489 24.2188C124.104 24.7127 125.021 24.9597 126.241 24.9597C127.3 24.9597 128.146 24.7682 128.781 24.3851C129.416 23.992 129.734 23.4779 129.734 22.8429V22.7371H132.047V22.8429C132.047 23.6493 131.795 24.3751 131.291 25.0202C130.797 25.6552 130.107 26.1542 129.22 26.5171C128.343 26.8799 127.35 27.0614 126.241 27.0614ZM143.628 26.5322V26.8799H141.36L140.453 24.8236H135.494L134.587 26.8799H132.319V26.5322L136.718 16.9612H139.228L143.628 26.5322ZM139.591 22.858L137.973 19.1687L136.356 22.858H139.591Z" fill="white"/>
</g>
</svg>
