<svg width="111" height="42" viewBox="0 0 111 42" fill="none" xmlns="http://www.w3.org/2000/svg">
<g clip-path="url(#clip0_4_224)">
<path d="M12.9618 25.6094V37.6448C12.9618 39.1012 11.4593 40.0766 10.1345 39.4585L1.09267 35.2955C0.437065 34.9933 0 34.0176 0 33.2894V33.1934C0 32.2043 0.573649 31.3112 1.46144 30.8989L12.9618 25.6094Z" fill="url(#paint0_linear_4_224)"/>
<path d="M25.9098 7.59708C25.9098 11.2654 24.8445 14.7689 22.9597 17.7366C21.0611 20.7042 18.3431 23.1223 15.0242 24.6611L12.9618 25.6091V20.9653C12.9618 18.9593 11.8008 17.1321 9.98425 16.3077L1.93949 12.5981C0.764878 12.0486 0.0136719 10.867 0.0136719 9.56179C0.0136719 8.42143 0.669271 7.40472 1.67999 6.9376L15.2291 0.700031C20.228 -1.60814 25.9098 2.07395 25.9098 7.61081V7.59708Z" fill="url(#paint1_linear_4_224)"/>
<path d="M12.9618 20.9655V25.6093L1.46144 30.8988C0.573649 31.3112 0 32.2042 0 33.1933V9.56201C0 10.8672 0.751207 12.0488 1.92582 12.5984L9.97059 16.3079C11.7871 17.146 12.9481 18.9596 12.9481 20.9655H12.9618Z" fill="url(#paint2_linear_4_224)"/>
<path d="M1.81656 34.7454L10.8584 38.9084C11.4184 39.1696 12.0057 39.1421 12.4974 38.9223C11.951 39.5817 11.0086 39.8566 10.1345 39.4581L1.09267 35.2951C0.587307 35.0754 0.232192 34.4709 0.0819499 33.88C0.0682917 33.8251 0.0546333 33.77 0.0546333 33.7151C0.0136583 33.6051 0 33.4952 0 33.3854V33.1655C0 33.0557 0 32.9321 0.0273165 32.8221C0.136583 31.9564 0.669257 31.2421 1.44778 30.8849H1.46144L12.9618 25.5815V26.6258L1.84387 31.7367C0.24585 32.5336 1.1473 34.4433 1.81656 34.7454Z" fill="url(#paint3_linear_4_224)"/>
<path d="M25.9098 8.6137C25.8279 12.337 24.8445 15.7855 22.946 18.7395C21.0611 21.7071 18.3431 24.1389 15.0241 25.6777L13.6856 26.2822L12.9617 26.6258V25.5815L13.6856 25.2518L15.0241 24.6335C18.3431 23.0948 21.0611 20.6767 22.946 17.709C23.0552 17.5304 23.1645 17.3518 23.2738 17.1869C23.4786 16.8297 23.6835 16.4587 23.8747 16.0878C24.3391 15.1673 24.7352 14.2055 25.0494 13.2163C25.1176 13.0102 25.1723 12.8179 25.2132 12.6118C25.2815 12.4057 25.3225 12.2134 25.3771 12.0073C25.664 10.7845 25.8552 9.52048 25.8962 8.229C25.8962 8.25649 25.9098 8.50379 25.9098 8.6137Z" fill="url(#paint4_linear_4_224)"/>
<path d="M30.9635 28.3157C30.2668 27.8896 29.4609 27.6699 28.5595 27.6699C27.8358 27.6699 27.1937 27.8072 26.6338 28.0684C26.0737 28.3432 25.6503 28.6729 25.3362 29.0575L25.1723 27.7936H22.7548V41.9861H25.4318V36.7789C25.7186 37.0813 26.0464 37.3559 26.4697 37.5895C27.0572 37.9192 27.7673 38.0704 28.5731 38.0704C29.4882 38.0704 30.2941 37.8507 30.9908 37.4383C31.6738 37.0126 32.22 36.408 32.6161 35.625C33.0123 34.8417 33.217 33.9211 33.217 32.8632C33.217 31.8053 33.0123 30.8987 32.6161 30.1154C32.22 29.3323 31.6738 28.7278 30.9771 28.302L30.9635 28.3157ZM29.6386 34.938C29.1879 35.4599 28.6004 35.7211 27.8767 35.7211C27.426 35.7211 27.0299 35.6111 26.6474 35.3914C26.2786 35.1714 25.9781 34.8417 25.7596 34.4296C25.5411 34.0174 25.4318 33.4953 25.4318 32.8908C25.4318 32.2862 25.5411 31.7505 25.7596 31.3384C25.9781 30.926 26.2786 30.6102 26.6474 30.3902C27.0162 30.1705 27.426 30.0605 27.8767 30.0605C28.6004 30.0605 29.1879 30.3214 29.6386 30.8435C30.0893 31.3657 30.3214 32.0526 30.3214 32.9044C30.3214 33.7562 30.0893 34.4432 29.6386 34.9653V34.938Z" fill="white"/>
<path d="M39.6637 27.6699C38.5163 27.6699 37.5603 27.9172 36.7817 28.3981C36.0034 28.879 35.4706 29.5796 35.1976 30.4863L37.4921 31.2969C37.6149 30.8299 37.8609 30.4726 38.2297 30.239C38.5985 30.0054 39.0356 29.8817 39.5409 29.8817C40.1144 29.8817 40.5242 30.0054 40.7975 30.2529C41.0705 30.5002 41.1936 30.7611 41.1936 31.0496V31.7641L38.5849 32.0526C37.301 32.2038 36.3447 32.5611 35.7165 33.1105C35.0881 33.6738 34.7605 34.3744 34.7605 35.2262C34.7605 35.8035 34.9106 36.3117 35.1976 36.7377C35.4842 37.1635 35.894 37.4932 36.4268 37.7268C36.9595 37.9604 37.5603 38.0841 38.257 38.0841C38.9946 38.0841 39.5818 37.9604 40.0189 37.7132C40.456 37.4659 40.8521 37.1362 41.1936 36.7238L41.3983 37.9604H43.8706V31.3244C43.8706 30.2254 43.5154 29.346 42.8187 28.6727C42.1223 27.9996 41.0705 27.6699 39.6774 27.6699H39.6637ZM41.1936 33.715C41.1936 34.2096 41.0978 34.6356 40.9203 34.979C40.7429 35.3226 40.4833 35.5699 40.1417 35.7484C39.8002 35.9271 39.3905 36.0095 38.8988 36.0095C38.4617 36.0095 38.1341 35.9132 37.9018 35.7211C37.6695 35.5286 37.5467 35.2814 37.5467 35.0065C37.5467 34.7044 37.6695 34.4569 37.9018 34.2508C38.1341 34.0447 38.489 33.9074 38.9534 33.8523L41.2072 33.5638V33.7287L41.1936 33.715Z" fill="white"/>
<path d="M50.5084 34.4848L47.9543 27.8076H44.9631L49.088 37.5763L47.1211 42.0002H49.812L55.9854 27.8076H53.1171L50.5084 34.4848Z" fill="white"/>
<path d="M72.157 27.6702C71.0642 27.6702 70.1628 27.9174 69.4388 28.412C68.7151 28.9065 68.2232 29.6072 67.9502 30.5141L69.0427 30.885C69.2204 30.2117 69.5893 29.6896 70.1219 29.3187C70.6545 28.9477 71.3239 28.7692 72.1431 28.7692C72.9899 28.7692 73.6593 28.9753 74.1373 29.3738C74.6154 29.772 74.8613 30.3217 74.8613 31.0223V31.8741L71.474 32.2453C70.1765 32.3689 69.2068 32.6986 68.5511 33.2344C67.8956 33.7701 67.5677 34.4571 67.5677 35.3089C67.5677 35.8861 67.7043 36.3943 67.9912 36.8065C68.2778 37.2189 68.6876 37.5486 69.2204 37.7683C69.7531 37.9882 70.3949 38.098 71.1461 38.098C72.0885 38.098 72.8807 37.8919 73.4955 37.4934C74.11 37.095 74.5744 36.5319 74.8613 35.8037L74.9432 37.947H76.0497V31.0086C76.0497 29.9644 75.7081 29.1538 75.0251 28.5493C74.3423 27.9447 73.3861 27.6562 72.157 27.6562V27.6702ZM74.8477 33.3717C74.8477 34.0725 74.7109 34.7044 74.4379 35.2677C74.1646 35.831 73.7685 36.2707 73.2223 36.5868C72.6896 36.9028 72.0066 37.0677 71.2007 37.0677C70.3949 37.0677 69.8486 36.9028 69.4388 36.5868C69.0291 36.2571 68.8243 35.8174 68.8243 35.254C68.8243 34.6907 69.0427 34.2374 69.4661 33.9077C69.8896 33.578 70.5453 33.358 71.4467 33.2756L74.8477 32.891V33.3992V33.3717Z" fill="white"/>
<path d="M85.6924 36.4765C85.0915 36.8201 84.4085 36.9986 83.6299 36.9986C82.4689 36.9986 81.5538 36.6277 80.8574 35.8859C80.1744 35.1438 79.8192 34.1547 79.8192 32.9044C79.8192 32.0663 79.9696 31.3381 80.2836 30.7199C80.5978 30.1017 81.0485 29.6208 81.622 29.2772C82.1959 28.9339 82.8786 28.769 83.6435 28.769C84.4494 28.769 85.1597 28.9475 85.7606 29.3048C86.3617 29.662 86.7849 30.1566 87.0035 30.7748L88.11 30.4039C87.7685 29.552 87.181 28.879 86.389 28.3981C85.5832 27.9172 84.6544 27.6699 83.6026 27.6699C82.551 27.6699 81.6905 27.8896 80.9393 28.3293C80.188 28.769 79.5871 29.3872 79.1774 30.1702C78.754 30.9672 78.549 31.8741 78.549 32.9181C78.549 33.9623 78.754 34.8417 79.1774 35.6247C79.6008 36.408 80.188 37.0126 80.9393 37.4383C81.7042 37.878 82.592 38.0841 83.6026 38.0841C84.6132 38.0841 85.5832 37.8505 86.389 37.3696C87.181 36.9026 87.7685 36.2293 88.1509 35.3774L87.0581 35.0065C86.7576 35.6247 86.2932 36.1056 85.706 36.4492L85.6924 36.4765Z" fill="white"/>
<path d="M97.3019 36.4765C96.7011 36.8201 96.018 36.9986 95.2395 36.9986C94.0784 36.9986 93.1633 36.6277 92.4669 35.8859C91.7839 35.1438 91.4287 34.1547 91.4287 32.9044C91.4287 32.0663 91.5792 31.3381 91.8931 30.7199C92.2073 30.1017 92.658 29.6208 93.2316 29.2772C93.8054 28.9339 94.4882 28.769 95.2531 28.769C96.059 28.769 96.7693 28.9475 97.3702 29.3048C97.971 29.662 98.3944 30.1566 98.6131 30.7748L99.7195 30.4039C99.378 29.552 98.7906 28.879 97.9986 28.3981C97.1927 27.9172 96.2637 27.6699 95.2122 27.6699C94.1606 27.6699 93.3001 27.8896 92.5488 28.3293C91.7976 28.769 91.1967 29.3872 90.7869 30.1702C90.3635 30.9672 90.1585 31.8741 90.1585 32.9181C90.1585 33.9623 90.3635 34.8417 90.7869 35.6247C91.2103 36.408 91.7976 37.0126 92.5488 37.4383C93.3138 37.878 94.2015 38.0841 95.2122 38.0841C96.2228 38.0841 97.1927 37.8505 97.9986 37.3696C98.7906 36.9026 99.378 36.2293 99.7605 35.3774L98.6677 35.0065C98.3671 35.6247 97.9028 36.1056 97.3156 36.4492L97.3019 36.4765Z" fill="white"/>
<path d="M109.226 28.5629C108.543 27.9721 107.587 27.6699 106.357 27.6699C105.265 27.6699 104.363 27.9172 103.639 28.4117C102.915 28.9063 102.424 29.6072 102.151 30.5138L103.243 30.8848C103.421 30.2114 103.79 29.6896 104.322 29.3184C104.855 28.9475 105.524 28.769 106.344 28.769C107.191 28.769 107.86 28.9751 108.338 29.3735C108.816 29.772 109.062 30.3214 109.062 31.0223V31.8741L105.674 32.245C104.377 32.3687 103.407 32.6984 102.752 33.2341C102.096 33.7699 101.768 34.4569 101.768 35.3087C101.768 35.8859 101.905 36.3941 102.191 36.8065C102.478 37.2186 102.888 37.5483 103.421 37.768C103.953 37.988 104.595 38.0977 105.347 38.0977C106.289 38.0977 107.081 37.8917 107.696 37.4932C108.31 37.095 108.775 36.5317 109.062 35.8035L109.144 37.9468H110.25V31.0084C110.25 29.9642 109.908 29.1536 109.226 28.549V28.5629ZM109.062 33.3717C109.062 34.0723 108.925 34.7044 108.652 35.2675C108.379 35.8308 107.983 36.2705 107.436 36.5865C106.904 36.9026 106.221 37.0674 105.415 37.0674C104.609 37.0674 104.063 36.9026 103.653 36.5865C103.243 36.2568 103.038 35.8171 103.038 35.2538C103.038 34.6905 103.257 34.2371 103.68 33.9074C104.104 33.5777 104.759 33.3578 105.661 33.2753L109.062 32.8908V33.399V33.3717Z" fill="white"/>
<path d="M66.2976 27.8076H64.6176L60.2469 32.3554H59.1814V27.8076H57.9661V37.9472H59.1814V33.3582H60.2469L64.6585 37.9472H66.3522L61.2849 32.8636L66.2976 27.8076Z" fill="white"/>
</g>
<defs>
<linearGradient id="paint0_linear_4_224" x1="-0.1639" y1="32.63" x2="24.8991" y2="32.63" gradientUnits="userSpaceOnUse">
<stop stop-color="#4EECFF"/>
<stop offset="0.24" stop-color="#42CDFD"/>
<stop offset="0.56" stop-color="#34ACFA"/>
<stop offset="0.82" stop-color="#2C97F9"/>
<stop offset="1" stop-color="#2A90F9"/>
</linearGradient>
<linearGradient id="paint1_linear_4_224" x1="1.35565e-05" y1="12.8042" x2="24.8991" y2="12.8042" gradientUnits="userSpaceOnUse">
<stop stop-color="#4EECFF"/>
<stop offset="0.24" stop-color="#42CDFD"/>
<stop offset="0.56" stop-color="#34ACFA"/>
<stop offset="0.82" stop-color="#2C97F9"/>
<stop offset="1" stop-color="#2A90F9"/>
</linearGradient>
<linearGradient id="paint2_linear_4_224" x1="0" y1="21.3777" x2="12.9618" y2="21.3777" gradientUnits="userSpaceOnUse">
<stop stop-color="#2A90F9"/>
<stop offset="0.4" stop-color="#2271DF"/>
<stop offset="0.76" stop-color="#1C5CCF"/>
<stop offset="1" stop-color="#1B55C9"/>
</linearGradient>
<linearGradient id="paint3_linear_4_224" x1="1.8029" y1="37.5484" x2="15.5334" y2="30.8528" gradientUnits="userSpaceOnUse">
<stop stop-color="#4EECFF"/>
<stop offset="0.32" stop-color="#3BBEFF"/>
<stop offset="0.6" stop-color="#2D9DFF"/>
<stop offset="0.84" stop-color="#2588FF"/>
<stop offset="1" stop-color="#2281FF"/>
</linearGradient>
<linearGradient id="paint4_linear_4_224" x1="10.6125" y1="21.8308" x2="28.5185" y2="13.0801" gradientUnits="userSpaceOnUse">
<stop stop-color="#4EECFF"/>
<stop offset="0.03" stop-color="#56ECFF"/>
<stop offset="0.29" stop-color="#92F3FF"/>
<stop offset="0.52" stop-color="#C1F8FF"/>
<stop offset="0.72" stop-color="#E2FBFF"/>
<stop offset="0.89" stop-color="#F7FEFF"/>
<stop offset="1" stop-color="white"/>
</linearGradient>
<clipPath id="clip0_4_224">
<rect width="110.25" height="42" fill="white"/>
</clipPath>
</defs>
</svg>
