<svg width="122" height="35" viewBox="0 0 122 35" fill="none" xmlns="http://www.w3.org/2000/svg">
<g id="Group 7">
<g id="Group 6">
<g id="Rectangle 3" filter="url(#filter0_b_6_2664)">
<rect width="122" height="35" rx="17.5" fill="white" fill-opacity="0.01"/>
<rect x="0.5" y="0.5" width="121" height="34" rx="17" stroke="white" stroke-opacity="0.08"/>
</g>
<g id="Group 5">
<path id="Star 1" d="M38.4578 11.3256C38.7572 10.4044 40.0604 10.4044 40.3598 11.3256L41.2282 13.997C41.3621 14.4089 41.746 14.6878 42.1792 14.6878H44.9883C45.9572 14.6878 46.3599 15.9277 45.576 16.497L43.304 18.1469C42.9534 18.4016 42.8067 18.8531 42.9406 19.2652L43.8086 21.9354C44.1081 22.8566 43.0538 23.6229 42.27 23.0537L39.9964 21.4025C39.646 21.1481 39.1716 21.1481 38.8212 21.4025L36.5476 23.0537C35.7638 23.6229 34.7095 22.8566 35.009 21.9354L35.8769 19.2652C36.0109 18.8531 35.8642 18.4016 35.5136 18.1469L33.2416 16.497C32.4577 15.9277 32.8604 14.6878 33.8292 14.6878H36.6384C37.0716 14.6878 37.4555 14.4089 37.5894 13.997L38.4578 11.3256Z" fill="#2A7BE4"/>
<path id="Star 2" d="M17.2158 11.3256C17.5153 10.4044 18.8184 10.4044 19.1179 11.3256L19.9862 13.997C20.1201 14.4089 20.5041 14.6878 20.9372 14.6878H23.7464C24.7152 14.6878 25.1179 15.9277 24.334 16.497L22.0621 18.1469C21.7115 18.4016 21.5647 18.8531 21.6987 19.2652L22.5667 21.9354C22.8661 22.8566 21.8118 23.6229 21.028 23.0537L18.7545 21.4025C18.4041 21.1481 17.9297 21.1481 17.5792 21.4025L15.3057 23.0537C14.5219 23.6229 13.4676 22.8566 13.767 21.9354L14.635 19.2652C14.769 18.8531 14.6222 18.4016 14.2716 18.1469L11.9997 16.497C11.2158 15.9277 11.6185 14.6878 12.5873 14.6878H15.3965C15.8296 14.6878 16.2136 14.4089 16.3475 13.997L17.2158 11.3256Z" fill="#2A7BE4"/>
<path id="Star 3" d="M59.7005 11.3256C59.9999 10.4044 61.3031 10.4044 61.6025 11.3256L62.4708 13.997C62.6048 14.4089 62.9887 14.6878 63.4219 14.6878H66.231C67.1999 14.6878 67.6026 15.9277 66.8186 16.497L64.5467 18.1469C64.1961 18.4016 64.0494 18.8531 64.1833 19.2652L65.0513 21.9354C65.3507 22.8566 64.2965 23.6229 63.5127 23.0537L61.2391 21.4025C60.8887 21.1481 60.4143 21.1481 60.0639 21.4025L57.7903 23.0537C57.0065 23.6229 55.9522 22.8566 56.2517 21.9354L57.1196 19.2652C57.2536 18.8531 57.1069 18.4016 56.7562 18.1469L54.4843 16.497C53.7004 15.9277 54.1031 14.6878 55.0719 14.6878H57.8811C58.3143 14.6878 58.6982 14.4089 58.8321 13.997L59.7005 11.3256Z" fill="#2A7BE4"/>
<path id="Star 4" d="M80.9429 11.3256C81.2423 10.4044 82.5455 10.4044 82.8449 11.3256L83.7133 13.997C83.8472 14.4089 84.2311 14.6878 84.6643 14.6878H87.4735C88.4423 14.6878 88.845 15.9277 88.0611 16.497L85.7892 18.1469C85.4385 18.4016 85.2918 18.8531 85.4258 19.2652L86.2937 21.9354C86.5932 22.8566 85.5389 23.6229 84.7551 23.0537L82.4815 21.4025C82.1311 21.1481 81.6567 21.1481 81.3063 21.4025L79.0327 23.0537C78.2489 23.6229 77.1946 22.8566 77.4941 21.9354L78.3621 19.2652C78.496 18.8531 78.3493 18.4016 77.9987 18.1469L75.7267 16.497C74.9428 15.9277 75.3455 14.6878 76.3144 14.6878H79.1235C79.5567 14.6878 79.9406 14.4089 80.0745 13.997L80.9429 11.3256Z" fill="#2A7BE4"/>
<path id="Star 5" d="M102.185 11.3256C102.485 10.4044 103.788 10.4044 104.087 11.3256L104.955 13.997C105.089 14.4089 105.473 14.6878 105.906 14.6878H108.716C109.684 14.6878 110.087 15.9277 109.303 16.497L107.031 18.1469C106.681 18.4016 106.534 18.8531 106.668 19.2652L107.536 21.9354C107.835 22.8566 106.781 23.6229 105.997 23.0537L103.724 21.4025C103.373 21.1481 102.899 21.1481 102.548 21.4025L100.275 23.0537C99.4911 23.6229 98.4368 22.8566 98.7363 21.9354L99.6042 19.2652C99.7382 18.8531 99.5915 18.4016 99.2408 18.1469L96.9689 16.497C96.185 15.9277 96.5877 14.6878 97.5565 14.6878H100.366C100.799 14.6878 101.183 14.4089 101.317 13.997L102.185 11.3256Z" fill="#2A7BE4"/>
</g>
</g>
</g>
<defs>
<filter id="filter0_b_6_2664" x="-25" y="-25" width="172" height="85" filterUnits="userSpaceOnUse" color-interpolation-filters="sRGB">
<feFlood flood-opacity="0" result="BackgroundImageFix"/>
<feGaussianBlur in="BackgroundImageFix" stdDeviation="12.5"/>
<feComposite in2="SourceAlpha" operator="in" result="effect1_backgroundBlur_6_2664"/>
<feBlend mode="normal" in="SourceGraphic" in2="effect1_backgroundBlur_6_2664" result="shape"/>
</filter>
</defs>
</svg>
